name rise30.6535peak61.5555fall82.9339.mot
datacolumns 19
datarows 20
range 14.18994500000000 14.22160900000000
endheader
time	ground_force1_vx	ground_force1_vy	ground_force1_vz	ground_force1_px	ground_force1_py	ground_force1_pz	ground_force2_vx	ground_force2_vy	ground_force2_vz	ground_force2_px	ground_force2_py	ground_force2_pz	ground_torque1_x	ground_torque1_y	ground_torque1_z	ground_torque2_x	ground_torque2_y	ground_torque2_z	
14.18994500000000	-39.88104600000000	791.22187199999996	49.51616300000000	0.15320500000000	0.00000000000000	0.10307400000000	-7.37990700000000	32.51574600000000	5.40460900000000	0.36824400000000	0.00000000000000	-0.06417500000000	0.00000000000000	23.34124000000000	0.00000000000000	0.00000000000000	3.29303800000000	0.00000000000000	
14.19161100000000	-40.42627800000000	788.95500400000003	49.25044600000000	0.15224600000000	0.00000000000000	0.10299200000000	-8.36543100000000	38.57131000000000	6.24251100000000	0.37134100000000	0.00000000000000	-0.06459200000000	0.00000000000000	23.23614900000000	0.00000000000000	0.00000000000000	3.84489400000000	0.00000000000000	
14.19327600000000	-40.99102000000000	786.61775699999998	48.97159700000000	0.15129700000000	0.00000000000000	0.10290700000000	-9.24273200000000	44.67723700000000	7.03536200000000	0.37439700000000	0.00000000000000	-0.06496700000000	0.00000000000000	23.13276400000000	0.00000000000000	0.00000000000000	4.38113400000000	0.00000000000000	
14.19493900000000	-41.57533700000000	784.20986600000003	48.67961500000000	0.15035800000000	0.00000000000000	0.10281900000000	-9.98177600000000	50.72559300000000	7.76210200000000	0.37740800000000	0.00000000000000	-0.06530700000000	0.00000000000000	23.03122900000000	0.00000000000000	0.00000000000000	4.88861600000000	0.00000000000000	
14.19661300000000	-42.17923400000000	781.73093500000004	48.37451400000000	0.14942900000000	0.00000000000000	0.10273000000000	-10.56059400000000	56.62968200000000	8.40651400000000	0.38036700000000	0.00000000000000	-0.06561600000000	0.00000000000000	22.93167000000000	0.00000000000000	0.00000000000000	5.35671700000000	0.00000000000000	
14.19827700000000	-42.80265200000000	779.18043599999999	48.05632200000000	0.14851100000000	0.00000000000000	0.10263800000000	-10.96600900000000	62.32820200000000	8.95783800000000	0.38327100000000	0.00000000000000	-0.06589900000000	0.00000000000000	22.83419700000000	0.00000000000000	0.00000000000000	5.77781000000000	0.00000000000000	
14.19993800000000	-43.44546500000000	776.55770299999995	47.72507800000000	0.14760600000000	0.00000000000000	0.10254400000000	-11.19354400000000	67.78667700000000	9.41085500000000	0.38611500000000	0.00000000000000	-0.06615900000000	0.00000000000000	22.73890700000000	0.00000000000000	0.00000000000000	6.14742600000000	0.00000000000000	
14.20160700000000	-44.10748400000000	773.86193300000002	47.38083700000000	0.14671200000000	0.00000000000000	0.10244700000000	-11.24663600000000	72.99643600000000	9.76549500000000	0.38889600000000	0.00000000000000	-0.06640000000000	0.00000000000000	22.64587500000000	0.00000000000000	0.00000000000000	6.46413400000000	0.00000000000000	
14.20327400000000	-44.78844400000000	771.09217899999999	47.02366800000000	0.14583200000000	0.00000000000000	0.10234900000000	-11.13532500000000	77.97165500000000	10.02609700000000	0.39160900000000	0.00000000000000	-0.06662500000000	0.00000000000000	22.55516300000000	0.00000000000000	0.00000000000000	6.72919200000000	0.00000000000000	
14.20494000000000	-45.48801300000000	768.24735699999997	46.65365300000000	0.14496500000000	0.00000000000000	0.10224800000000	-10.87463800000000	82.74500700000000	10.20042400000000	0.39425300000000	0.00000000000000	-0.06683500000000	0.00000000000000	22.46681200000000	0.00000000000000	0.00000000000000	6.94603200000000	0.00000000000000	
14.20660600000000	-46.20578200000000	765.32624199999998	46.27088800000000	0.14411200000000	0.00000000000000	0.10214500000000	-10.48282900000000	87.36255199999999	10.29857800000000	0.39682300000000	0.00000000000000	-0.06703300000000	0.00000000000000	22.38084500000000	0.00000000000000	0.00000000000000	7.11965900000000	0.00000000000000	
14.20827100000000	-46.94126700000000	762.32746799999995	45.87548000000000	0.14327300000000	0.00000000000000	0.10204100000000	-9.97967300000000	91.87840500000000	10.33190600000000	0.39931700000000	0.00000000000000	-0.06722100000000	0.00000000000000	22.29726800000000	0.00000000000000	0.00000000000000	7.25601300000000	0.00000000000000	
14.20994300000000	-47.69390600000000	759.24953200000004	45.46755400000000	0.14244800000000	0.00000000000000	0.10193400000000	-9.38491200000000	96.34965800000001	10.31199000000000	0.40173300000000	0.00000000000000	-0.06740000000000	0.00000000000000	22.21606600000000	0.00000000000000	0.00000000000000	7.36137500000000	0.00000000000000	
14.21161100000000	-48.46305800000000	756.09079899999995	45.04724500000000	0.14163700000000	0.00000000000000	0.10182600000000	-8.71697700000000	100.83191700000000	10.24979900000000	0.40406900000000	0.00000000000000	-0.06757100000000	0.00000000000000	22.13720700000000	0.00000000000000	0.00000000000000	7.44182600000000	0.00000000000000	
14.21327700000000	-49.24800200000000	752.84950000000003	44.61470200000000	0.14083900000000	0.00000000000000	0.10171600000000	-7.99202900000000	105.37569700000000	10.15502100000000	0.40632200000000	0.00000000000000	-0.06773600000000	0.00000000000000	22.06063800000000	0.00000000000000	0.00000000000000	7.50283200000000	0.00000000000000	
14.21493800000000	-50.04793200000000	749.52373999999998	44.17008900000000	0.14005600000000	0.00000000000000	0.10160500000000	-7.22332800000000	110.02380400000000	10.03562300000000	0.40849200000000	0.00000000000000	-0.06789500000000	0.00000000000000	21.98628800000000	0.00000000000000	0.00000000000000	7.54892900000000	0.00000000000000	
14.21662300000000	-50.86196100000000	746.11150299999997	43.71358000000000	0.13928600000000	0.00000000000000	0.10149300000000	-6.42094000000000	114.80973100000000	9.89759800000000	0.41057700000000	0.00000000000000	-0.06805000000000	0.00000000000000	21.91406800000000	0.00000000000000	0.00000000000000	7.58354000000000	0.00000000000000	
14.21827300000000	-51.68911600000000	742.61065599999995	43.24536600000000	0.13853000000000	0.00000000000000	0.10137900000000	-5.59172300000000	119.75699700000000	9.74492200000000	0.41257600000000	0.00000000000000	-0.06820200000000	0.00000000000000	21.84386800000000	0.00000000000000	0.00000000000000	7.60891400000000	0.00000000000000	
14.21994200000000	-52.52833900000000	739.01895999999999	42.76564600000000	0.13778700000000	0.00000000000000	0.10126400000000	-4.73956200000000	124.87932600000001	9.57965400000000	0.41448800000000	0.00000000000000	-0.06835000000000	0.00000000000000	21.77556300000000	0.00000000000000	0.00000000000000	7.62615000000000	0.00000000000000	
14.22160900000000	-53.37848800000000	735.33407199999999	42.27463800000000	0.13705600000000	0.00000000000000	0.10114800000000	-3.86577300000000	130.18148500000001	9.40216700000000	0.41631300000000	0.00000000000000	-0.06849600000000	0.00000000000000	21.70900800000000	0.00000000000000	0.00000000000000	7.63532200000000	0.00000000000000	
